{"title":"Yamudiki Mogudu (2012) HQ PDVD MPEG - ExclusiveM","uid":7982298,"size":1103022209,"categoryP":"video","categoryS":"movies","magnet":"?xt=urn:btih:8feca9c3e470341da215e9b55f3134afdce5ba08&amp;dn=Yamudiki+Mogudu+%282012%29+HQ+PDVD+MPEG+-+ExclusiveM&amp;tr=udp%3A%2F%2Ftracker.openbittorrent.com%3A80&amp;tr=udp%3A%2F%2Fopen.demonii.com%3A1337&amp;tr=udp%3A%2F%2Ftracker.coppersurfer.tk%3A6969&amp;tr=udp%3A%2F%2Fexodus.desync.com%3A6969","seeders":1,"leechers":0,"uploader":"tykoon123","files":-1,"time":1357208849,"description":"Poster: &lt;a href=&quot;\nhttp://www.shotpix.com/images/21935320438563877062.jpg&quot; rel=&quot;nofollow&quot; target=&quot;_NEW&quot;&gt;\nhttp://www.shotpix.com/images/21935320438563877062.jpg&lt;/a&gt;\n\nInfo:\n\nFormat : MPEG-PS\nFile size : 1 024 MiB\nDuration : 2h 23mn\nOverall bit rate mode : Variable\nOverall bit rate : 994 Kbps\n\nVideo\nID : 224 (0xE0)\nFormat : MPEG Video\nFormat version : Version 2\nFormat profile : Main@Main\nFormat settings, BVOP : Yes\nFormat settings, Matrix : Default\nFormat settings, GOP : M=3, N=12\nDuration : 2h 23mn\nBit rate mode : Variable\nBit rate : 783 Kbps\nMaximum bit rate : 9 608 Kbps\nWidth : 720 pixels\nHeight : 576 pixels\nDisplay aspect ratio : 16:9\nFrame rate : 24.000 fps\nStandard : PAL\nColor space : YUV\nChroma subsampling : 4:2:0\nBit depth : 8 bits\nScan type : Progressive\nScan order : 2:2:2:2:2:2:2:2:2:2:2:3 Pulldown\nCompression mode : Lossy\nBits/(Pixel*Frame) : 0.079\nStream size : 806 MiB (79%)\n\nAudio\nID : 189 (0xBD)-128 (0x80)\nFormat : AC-3\nFormat/Info : Audio Coding 3\nMode extension : CM (complete main)\nFormat settings, Endianness : Big\nMuxing mode : DVD-Video\nDuration : 2h 23mn\nBit rate mode : Constant\nBit rate : 192 Kbps\nChannel(s) : 2 channels\nChannel positions : Front: L R\nSampling rate : 48.0 KHz\nBit depth : 16 bits\nCompression mode : Lossy\nDelay relative to video : 33ms\nStream size : 198 MiB (19%)\n\n\nScreens: &lt;a href=&quot;\nhttp://www.shotpix.com/images/02216412642694487775.jpg&quot; rel=&quot;nofollow&quot; target=&quot;_NEW&quot;&gt;\nhttp://www.shotpix.com/images/02216412642694487775.jpg&lt;/a&gt; &lt;a href=&quot;\nhttp://www.shotpix.com/images/79486254645099714909.jpg&quot; rel=&quot;nofollow&quot; target=&quot;_NEW&quot;&gt;\nhttp://www.shotpix.com/images/79486254645099714909.jpg&lt;/a&gt; &lt;a href=&quot;\nhttp://www.shotpix.com/images/07718842047086445015.jpg&quot; rel=&quot;nofollow&quot; target=&quot;_NEW&quot;&gt;\nhttp://www.shotpix.com/images/07718842047086445015.jpg&lt;/a&gt; &lt;a href=&quot;\nhttp://www.shotpix.com/images/11861066448283804535.jpg&quot; rel=&quot;nofollow&quot; target=&quot;_NEW&quot;&gt;\nhttp://www.shotpix.com/images/11861066448283804535.jpg&lt;/a&gt;\n\n\n\n\n","torrent":{"xt":"urn:btih:8feca9c3e470341da215e9b55f3134afdce5ba08","amp;dn":"Yamudiki+Mogudu+%282012%29+HQ+PDVD+MPEG+-+ExclusiveM","amp;tr":["udp%3A%2F%2Ftracker.openbittorrent.com%3A80","udp%3A%2F%2Fopen.demonii.com%3A1337","udp%3A%2F%2Ftracker.coppersurfer.tk%3A6969","udp%3A%2F%2Fexodus.desync.com%3A6969"],"infoHash":"8feca9c3e470341da215e9b55f3134afdce5ba08","infoHashBuffer":{"type":"Buffer","data":[143,236,169,195,228,112,52,29,162,21,233,181,95,49,52,175,220,229,186,8]},"announce":[],"urlList":[]}}